<?xml version="1.0" ?><svg id="Layer_1" style="enable-background:new 0 0 200 200;" version="1.1" viewBox="0 0 200 200" xml:space="preserve" xmlns="http://www.w3.org/2000/svg" xmlns:xlink="http://www.w3.org/1999/xlink"><style type="text/css">
	.st0{fill:url(#SVGID_1_);}
</style><linearGradient gradientUnits="userSpaceOnUse" id="SVGID_1_" x1="172.5364" x2="21.4603" y1="187.3254" y2="36.2493"><stop offset="0" style="stop-color:#007FE2"/><stop offset="1" style="stop-color:#39D3B8"/></linearGradient><path class="st0" d="M140.507,59.215c-0.033-0.034-0.067-0.066-0.102-0.098l-36.073-33.199c-0.082-0.076-0.176-0.131-0.263-0.197  c-0.07-0.053-0.136-0.109-0.21-0.157c-0.118-0.076-0.24-0.137-0.364-0.198c-0.08-0.039-0.157-0.081-0.241-0.114  c-0.128-0.051-0.258-0.086-0.39-0.121c-0.088-0.024-0.174-0.05-0.265-0.067c-0.138-0.025-0.277-0.034-0.416-0.042  c-0.071-0.004-0.138-0.021-0.21-0.021c-0.021,0-0.041,0.006-0.063,0.006c-0.129,0.003-0.256,0.022-0.384,0.039  c-0.103,0.013-0.207,0.02-0.307,0.042c-0.093,0.021-0.181,0.056-0.272,0.085c-0.128,0.04-0.256,0.075-0.377,0.129  c-0.061,0.027-0.117,0.065-0.176,0.096c-0.144,0.074-0.287,0.15-0.419,0.243c-0.039,0.028-0.074,0.063-0.112,0.092  c-0.147,0.114-0.288,0.234-0.415,0.369c-0.007,0.008-0.016,0.012-0.023,0.02c-0.023,0.025-0.038,0.055-0.06,0.08  c-0.123,0.141-0.237,0.288-0.336,0.448c-0.028,0.045-0.049,0.091-0.074,0.137c-0.085,0.152-0.163,0.308-0.225,0.473  c-0.019,0.051-0.031,0.103-0.048,0.154c-0.052,0.162-0.097,0.326-0.125,0.498c-0.009,0.056-0.011,0.112-0.017,0.168  c-0.015,0.131-0.04,0.258-0.04,0.393L98.5,145.578c0.193,6.855-3.905,13.881-10.695,18.339c-9.773,6.413-21.893,5.305-27.017-2.471  c-2.116-3.209-2.778-7.112-1.916-11.289c1.16-5.617,4.928-10.875,10.339-14.428c2.746-1.802,5.702-3.041,8.783-3.681  c1.877-0.39,3.083-2.229,2.693-4.107c-0.391-1.877-2.229-3.088-4.107-2.693c-3.939,0.819-7.701,2.392-11.181,4.675  c-6.941,4.556-11.8,11.419-13.329,18.83c-1.226,5.936-0.189,11.801,2.919,16.515c4.209,6.387,11.537,9.732,19.487,9.731  c5.702-0.001,11.724-1.722,17.141-5.277c8.789-5.769,14.087-15.096,13.828-24.242V36.381l30.202,27.796  c3.768,3.789,5.841,8.813,5.839,14.152c-0.003,5.363-2.098,10.404-5.9,14.195c-1.359,1.355-1.361,3.553-0.007,4.911  c0.679,0.68,1.569,1.021,2.459,1.021c0.887,0,1.774-0.338,2.452-1.013c5.118-5.103,7.938-11.89,7.941-19.11  C148.435,71.112,145.62,64.322,140.507,59.215z"/></svg>